<?xml version="1.0" encoding="UTF-8" standalone="no"?>
<!DOCTYPE svg PUBLIC "-//W3C//DTD SVG 1.1//EN"
 "http://www.w3.org/Graphics/SVG/1.1/DTD/svg11.dtd">
<!-- Generated by graphviz version 2.40.1 (20161225.0304)
 -->
<!-- Title: stack Pages: 1 -->
<svg width="698pt" height="147pt"
 viewBox="0.00 0.00 698.00 147.00" xmlns="http://www.w3.org/2000/svg" xmlns:xlink="http://www.w3.org/1999/xlink">
<g id="graph0" class="graph" transform="scale(1 1) rotate(0) translate(4 143)">
<title>stack</title>
<polygon fill="#ffffff" stroke="transparent" points="-4,4 -4,-143 694,-143 694,4 -4,4"/>
<text text-anchor="middle" x="345" y="-7.8" font-family="Times,serif" font-size="14.00" fill="#000000">栈逆序的回朔(冒泡)过程</text>
<!-- end_1 -->
<g id="node1" class="node">
<title>end_1</title>
<polygon fill="none" stroke="#000000" points="0,-23.5 0,-138.5 54,-138.5 54,-23.5 0,-23.5"/>
<text text-anchor="middle" x="27" y="-123.3" font-family="Times,serif" font-size="14.00" fill="#000000">5</text>
<polyline fill="none" stroke="#000000" points="0,-115.5 54,-115.5 "/>
<text text-anchor="middle" x="27" y="-100.3" font-family="Times,serif" font-size="14.00" fill="#000000">1</text>
<polyline fill="none" stroke="#000000" points="0,-92.5 54,-92.5 "/>
<text text-anchor="middle" x="27" y="-77.3" font-family="Times,serif" font-size="14.00" fill="#000000">2</text>
<polyline fill="none" stroke="#000000" points="0,-69.5 54,-69.5 "/>
<text text-anchor="middle" x="27" y="-54.3" font-family="Times,serif" font-size="14.00" fill="#000000">3</text>
<polyline fill="none" stroke="#000000" points="0,-46.5 54,-46.5 "/>
<text text-anchor="middle" x="27" y="-31.3" font-family="Times,serif" font-size="14.00" fill="#000000">4</text>
</g>
<!-- end_2 -->
<g id="node2" class="node">
<title>end_2</title>
<polygon fill="none" stroke="#000000" points="159,-35 159,-127 213,-127 213,-35 159,-35"/>
<text text-anchor="middle" x="186" y="-111.8" font-family="Times,serif" font-size="14.00" fill="#000000">5</text>
<polyline fill="none" stroke="#000000" points="159,-104 213,-104 "/>
<text text-anchor="middle" x="186" y="-88.8" font-family="Times,serif" font-size="14.00" fill="#000000">2</text>
<polyline fill="none" stroke="#000000" points="159,-81 213,-81 "/>
<text text-anchor="middle" x="186" y="-65.8" font-family="Times,serif" font-size="14.00" fill="#000000">3</text>
<polyline fill="none" stroke="#000000" points="159,-58 213,-58 "/>
<text text-anchor="middle" x="186" y="-42.8" font-family="Times,serif" font-size="14.00" fill="#000000">4</text>
</g>
<!-- end_1&#45;&gt;end_2 -->
<g id="edge1" class="edge">
<title>end_1&#45;&gt;end_2</title>
<path fill="none" stroke="#000000" d="M64.478,-81C93.4137,-81 132.7724,-81 158.758,-81"/>
<polygon fill="#000000" stroke="#000000" points="64.3331,-77.5001 54.3331,-81 64.333,-84.5001 64.3331,-77.5001"/>
<text text-anchor="middle" x="106.5" y="-117" font-family="Times,serif" font-size="10.00" fill="#000000">弹出栈顶元素5,</text>
<text text-anchor="middle" x="106.5" y="-106" font-family="Times,serif" font-size="10.00" fill="#000000">并先后压入当前</text>
<text text-anchor="middle" x="106.5" y="-95" font-family="Times,serif" font-size="10.00" fill="#000000">函数栈保存</text>
<text text-anchor="middle" x="106.5" y="-84" font-family="Times,serif" font-size="10.00" fill="#000000">的元素1和5</text>
</g>
<!-- end_3 -->
<g id="node3" class="node">
<title>end_3</title>
<polygon fill="none" stroke="#000000" points="318,-46.5 318,-115.5 372,-115.5 372,-46.5 318,-46.5"/>
<text text-anchor="middle" x="345" y="-100.3" font-family="Times,serif" font-size="14.00" fill="#000000">5</text>
<polyline fill="none" stroke="#000000" points="318,-92.5 372,-92.5 "/>
<text text-anchor="middle" x="345" y="-77.3" font-family="Times,serif" font-size="14.00" fill="#000000">3</text>
<polyline fill="none" stroke="#000000" points="318,-69.5 372,-69.5 "/>
<text text-anchor="middle" x="345" y="-54.3" font-family="Times,serif" font-size="14.00" fill="#000000">4</text>
</g>
<!-- end_2&#45;&gt;end_3 -->
<g id="edge2" class="edge">
<title>end_2&#45;&gt;end_3</title>
<path fill="none" stroke="#000000" d="M223.478,-81C252.4137,-81 291.7724,-81 317.758,-81"/>
<polygon fill="#000000" stroke="#000000" points="223.3331,-77.5001 213.3331,-81 223.333,-84.5001 223.3331,-77.5001"/>
<text text-anchor="middle" x="265.5" y="-117" font-family="Times,serif" font-size="10.00" fill="#000000">弹出栈顶元素5,</text>
<text text-anchor="middle" x="265.5" y="-106" font-family="Times,serif" font-size="10.00" fill="#000000">并先后压入当前</text>
<text text-anchor="middle" x="265.5" y="-95" font-family="Times,serif" font-size="10.00" fill="#000000">函数栈保存</text>
<text text-anchor="middle" x="265.5" y="-84" font-family="Times,serif" font-size="10.00" fill="#000000">的元素2和5</text>
</g>
<!-- end_4 -->
<g id="node4" class="node">
<title>end_4</title>
<polygon fill="none" stroke="#000000" points="477,-58 477,-104 531,-104 531,-58 477,-58"/>
<text text-anchor="middle" x="504" y="-88.8" font-family="Times,serif" font-size="14.00" fill="#000000">5</text>
<polyline fill="none" stroke="#000000" points="477,-81 531,-81 "/>
<text text-anchor="middle" x="504" y="-65.8" font-family="Times,serif" font-size="14.00" fill="#000000">4</text>
</g>
<!-- end_3&#45;&gt;end_4 -->
<g id="edge3" class="edge">
<title>end_3&#45;&gt;end_4</title>
<path fill="none" stroke="#000000" d="M382.478,-81C411.4137,-81 450.7724,-81 476.758,-81"/>
<polygon fill="#000000" stroke="#000000" points="382.3331,-77.5001 372.3331,-81 382.333,-84.5001 382.3331,-77.5001"/>
<text text-anchor="middle" x="424.5" y="-117" font-family="Times,serif" font-size="10.00" fill="#000000">弹出栈顶元素5,</text>
<text text-anchor="middle" x="424.5" y="-106" font-family="Times,serif" font-size="10.00" fill="#000000">并先后压入当前</text>
<text text-anchor="middle" x="424.5" y="-95" font-family="Times,serif" font-size="10.00" fill="#000000">函数栈保存</text>
<text text-anchor="middle" x="424.5" y="-84" font-family="Times,serif" font-size="10.00" fill="#000000">的元素3和5</text>
</g>
<!-- end_5 -->
<g id="node5" class="node">
<title>end_5</title>
<polygon fill="none" stroke="#000000" points="636,-63 636,-99 690,-99 690,-63 636,-63"/>
<text text-anchor="middle" x="663" y="-77.3" font-family="Times,serif" font-size="14.00" fill="#000000">5</text>
<text text-anchor="middle" x="600" y="-51.3" font-family="Times,serif" font-size="14.00" fill="#000000">沿栈底回朔</text>
</g>
<!-- end_4&#45;&gt;end_5 -->
<g id="edge4" class="edge">
<title>end_4&#45;&gt;end_5</title>
<path fill="none" stroke="#000000" d="M541.478,-81C570.4137,-81 609.7724,-81 635.758,-81"/>
<polygon fill="#000000" stroke="#000000" points="541.3331,-77.5001 531.3331,-81 541.333,-84.5001 541.3331,-77.5001"/>
<text text-anchor="middle" x="583.5" y="-117" font-family="Times,serif" font-size="10.00" fill="#000000">弹出栈顶元素5,</text>
<text text-anchor="middle" x="583.5" y="-106" font-family="Times,serif" font-size="10.00" fill="#000000">并先后压入当前</text>
<text text-anchor="middle" x="583.5" y="-95" font-family="Times,serif" font-size="10.00" fill="#000000">函数栈保存</text>
<text text-anchor="middle" x="583.5" y="-84" font-family="Times,serif" font-size="10.00" fill="#000000">的元素4和5</text>
</g>
</g>
</svg>
