<?xml version="1.0" encoding="UTF-8" standalone="no"?>
<!DOCTYPE svg PUBLIC "-//W3C//DTD SVG 1.1//EN"
 "http://www.w3.org/Graphics/SVG/1.1/DTD/svg11.dtd">
<!-- Generated by graphviz version 2.40.1 (20161225.0304)
 -->
<!-- Title: stack Pages: 1 -->
<svg width="718pt" height="147pt"
 viewBox="0.00 0.00 718.00 147.00" xmlns="http://www.w3.org/2000/svg" xmlns:xlink="http://www.w3.org/1999/xlink">
<g id="graph0" class="graph" transform="scale(1 1) rotate(0) translate(4 143)">
<title>stack</title>
<polygon fill="#ffffff" stroke="transparent" points="-4,4 -4,-143 714,-143 714,4 -4,4"/>
<text text-anchor="middle" x="355" y="-7.8" font-family="Times,serif" font-size="14.00" fill="#000000">栈逆序递归过程</text>
<!-- start_1 -->
<g id="node1" class="node">
<title>start_1</title>
<polygon fill="none" stroke="#000000" points="0,-23.5 0,-138.5 54,-138.5 54,-23.5 0,-23.5"/>
<text text-anchor="middle" x="27" y="-123.3" font-family="Times,serif" font-size="14.00" fill="#000000">1</text>
<polyline fill="none" stroke="#000000" points="0,-115.5 54,-115.5 "/>
<text text-anchor="middle" x="27" y="-100.3" font-family="Times,serif" font-size="14.00" fill="#000000">2</text>
<polyline fill="none" stroke="#000000" points="0,-92.5 54,-92.5 "/>
<text text-anchor="middle" x="27" y="-77.3" font-family="Times,serif" font-size="14.00" fill="#000000">3</text>
<polyline fill="none" stroke="#000000" points="0,-69.5 54,-69.5 "/>
<text text-anchor="middle" x="27" y="-54.3" font-family="Times,serif" font-size="14.00" fill="#000000">4</text>
<polyline fill="none" stroke="#000000" points="0,-46.5 54,-46.5 "/>
<text text-anchor="middle" x="27" y="-31.3" font-family="Times,serif" font-size="14.00" fill="#000000">5</text>
</g>
<!-- start_2 -->
<g id="node2" class="node">
<title>start_2</title>
<polygon fill="none" stroke="#000000" points="164,-35 164,-127 218,-127 218,-35 164,-35"/>
<text text-anchor="middle" x="191" y="-111.8" font-family="Times,serif" font-size="14.00" fill="#000000">2</text>
<polyline fill="none" stroke="#000000" points="164,-104 218,-104 "/>
<text text-anchor="middle" x="191" y="-88.8" font-family="Times,serif" font-size="14.00" fill="#000000">3</text>
<polyline fill="none" stroke="#000000" points="164,-81 218,-81 "/>
<text text-anchor="middle" x="191" y="-65.8" font-family="Times,serif" font-size="14.00" fill="#000000">4</text>
<polyline fill="none" stroke="#000000" points="164,-58 218,-58 "/>
<text text-anchor="middle" x="191" y="-42.8" font-family="Times,serif" font-size="14.00" fill="#000000">5</text>
</g>
<!-- start_1&#45;&gt;start_2 -->
<g id="edge1" class="edge">
<title>start_1&#45;&gt;start_2</title>
<path fill="none" stroke="#000000" d="M54.0813,-81C81.263,-81 123.3451,-81 153.6816,-81"/>
<polygon fill="#000000" stroke="#000000" points="153.8785,-84.5001 163.8785,-81 153.8785,-77.5001 153.8785,-84.5001"/>
<text text-anchor="middle" x="109" y="-84" font-family="Times,serif" font-size="10.00" fill="#000000">当前函数栈保存1</text>
</g>
<!-- start_3 -->
<g id="node3" class="node">
<title>start_3</title>
<polygon fill="none" stroke="#000000" points="328,-46.5 328,-115.5 382,-115.5 382,-46.5 328,-46.5"/>
<text text-anchor="middle" x="355" y="-100.3" font-family="Times,serif" font-size="14.00" fill="#000000">3</text>
<polyline fill="none" stroke="#000000" points="328,-92.5 382,-92.5 "/>
<text text-anchor="middle" x="355" y="-77.3" font-family="Times,serif" font-size="14.00" fill="#000000">4</text>
<polyline fill="none" stroke="#000000" points="328,-69.5 382,-69.5 "/>
<text text-anchor="middle" x="355" y="-54.3" font-family="Times,serif" font-size="14.00" fill="#000000">5</text>
</g>
<!-- start_2&#45;&gt;start_3 -->
<g id="edge2" class="edge">
<title>start_2&#45;&gt;start_3</title>
<path fill="none" stroke="#000000" d="M218.0813,-81C245.263,-81 287.3451,-81 317.6816,-81"/>
<polygon fill="#000000" stroke="#000000" points="317.8785,-84.5001 327.8785,-81 317.8785,-77.5001 317.8785,-84.5001"/>
<text text-anchor="middle" x="273" y="-84" font-family="Times,serif" font-size="10.00" fill="#000000">当前函数栈保存2</text>
</g>
<!-- start_4 -->
<g id="node4" class="node">
<title>start_4</title>
<polygon fill="none" stroke="#000000" points="492,-58 492,-104 546,-104 546,-58 492,-58"/>
<text text-anchor="middle" x="519" y="-88.8" font-family="Times,serif" font-size="14.00" fill="#000000">4</text>
<polyline fill="none" stroke="#000000" points="492,-81 546,-81 "/>
<text text-anchor="middle" x="519" y="-65.8" font-family="Times,serif" font-size="14.00" fill="#000000">5</text>
</g>
<!-- start_3&#45;&gt;start_4 -->
<g id="edge3" class="edge">
<title>start_3&#45;&gt;start_4</title>
<path fill="none" stroke="#000000" d="M382.0813,-81C409.263,-81 451.3451,-81 481.6816,-81"/>
<polygon fill="#000000" stroke="#000000" points="481.8785,-84.5001 491.8785,-81 481.8785,-77.5001 481.8785,-84.5001"/>
<text text-anchor="middle" x="437" y="-84" font-family="Times,serif" font-size="10.00" fill="#000000">当前函数栈保存3</text>
</g>
<!-- start_5 -->
<g id="node5" class="node">
<title>start_5</title>
<polygon fill="none" stroke="#000000" points="656,-63 656,-99 710,-99 710,-63 656,-63"/>
<text text-anchor="middle" x="683" y="-77.3" font-family="Times,serif" font-size="14.00" fill="#000000">5</text>
<text text-anchor="middle" x="630.5" y="-51.3" font-family="Times,serif" font-size="14.00" fill="#000000">到达栈底(将5重新压入栈)</text>
</g>
<!-- start_4&#45;&gt;start_5 -->
<g id="edge4" class="edge">
<title>start_4&#45;&gt;start_5</title>
<path fill="none" stroke="#000000" d="M546.0813,-81C573.263,-81 615.3451,-81 645.6816,-81"/>
<polygon fill="#000000" stroke="#000000" points="645.8785,-84.5001 655.8785,-81 645.8785,-77.5001 645.8785,-84.5001"/>
<text text-anchor="middle" x="601" y="-84" font-family="Times,serif" font-size="10.00" fill="#000000">当前函数栈保存4</text>
</g>
</g>
</svg>
