<?xml version="1.0" encoding="UTF-8" standalone="no"?>
<!DOCTYPE svg PUBLIC "-//W3C//DTD SVG 1.1//EN"
 "http://www.w3.org/Graphics/SVG/1.1/DTD/svg11.dtd">
<!-- Generated by graphviz version 2.40.1 (20161225.0304)
 -->
<!-- Title: stack Pages: 1 -->
<svg width="102pt" height="147pt"
 viewBox="0.00 0.00 102.00 147.00" xmlns="http://www.w3.org/2000/svg" xmlns:xlink="http://www.w3.org/1999/xlink">
<g id="graph0" class="graph" transform="scale(1 1) rotate(0) translate(4 143)">
<title>stack</title>
<polygon fill="#ffffff" stroke="transparent" points="-4,4 -4,-143 98,-143 98,4 -4,4"/>
<text text-anchor="middle" x="47" y="-7.8" font-family="Fira Code" font-size="14.00" fill="#000000">stack</text>
<!-- stack_shape -->
<g id="node1" class="node">
<title>stack_shape</title>
<polygon fill="none" stroke="#000000" points="0,-23.5 0,-138.5 54,-138.5 54,-23.5 0,-23.5"/>
<text text-anchor="middle" x="27" y="-123.3" font-family="Times,serif" font-size="14.00" fill="#000000">top</text>
<polyline fill="none" stroke="#000000" points="0,-115.5 54,-115.5 "/>
<text text-anchor="middle" x="27" y="-100.3" font-family="Times,serif" font-size="14.00" fill="#000000"> </text>
<polyline fill="none" stroke="#000000" points="0,-92.5 54,-92.5 "/>
<text text-anchor="middle" x="27" y="-77.3" font-family="Times,serif" font-size="14.00" fill="#000000"> </text>
<polyline fill="none" stroke="#000000" points="0,-69.5 54,-69.5 "/>
<text text-anchor="middle" x="27" y="-54.3" font-family="Times,serif" font-size="14.00" fill="#000000"> </text>
<polyline fill="none" stroke="#000000" points="0,-46.5 54,-46.5 "/>
<text text-anchor="middle" x="27" y="-31.3" font-family="Times,serif" font-size="14.00" fill="#000000"> </text>
</g>
<!--   -->
<g id="node2" class="node">
<title> </title>
<text text-anchor="middle" x="92" y="-123.3" font-family="Times,serif" font-size="14.00" fill="#000000"> </text>
</g>
<!-- stack_shape&#45;&gt;  -->
<g id="edge1" class="edge">
<title>stack_shape:top&#45;&gt; </title>
<path fill="none" stroke="#000000" d="M64.2675,-127C75.0855,-127 85.6143,-127 89.9404,-127"/>
<polygon fill="#000000" stroke="#000000" points="64,-123.5001 54,-127 64,-130.5001 64,-123.5001"/>
</g>
</g>
</svg>
